{"scene":0,"asset":{"generator":"ImageToStl.com","version":"2.0"},"scenes":[{"name":"Scene","nodes":[0]}],"nodes":[{"name":"Node0","children":[1]},{"name":"Node1","mesh":0}],"materials":[{"name":"Flame","pbrMetallicRoughness":{"baseColorFactor":[0.8,0.8,0.8,1.0],"metallicFactor":1.0,"roughnessFactor":0.4},"emissiveFactor":[0.0,0.0,0.0],"doubleSided":true}],"meshes":[{"name":"Mesh0","primitives":[{"indices":3,"material":0,"attributes":{"POSITION":0,"NORMAL":1,"TEXCOORD_0":2}}]}],"accessors":[{"bufferView":0,"componentType":5126,"count":527,"type":"VEC3","min":[-0.9960387,-0.99603397,0.0],"max":[1.0038997,1.0039043,3.3021333]},{"bufferView":1,"componentType":5126,"count":527,"type":"VEC3"},{"bufferView":2,"componentType":5126,"count":527,"type":"VEC2"},{"bufferView":3,"componentType":5123,"count":8352,"type":"SCALAR"}],"bufferViews":[{"target":34962,"buffer":0,"byteLength":6324,"byteOffset":0},{"target":34962,"buffer":0,"byteLength":6324,"byteOffset":6324},{"target":34962,"buffer":0,"byteLength":4216,"byteOffset":12648},{"target":34963,"buffer":0,"byteLength":16704,"byteOffset":16864}],"buffers":[{"byteLength":33568,"uri":"data:application/octet-stream;base64,"}]}